<?xml version="1.0" encoding="UTF-8" standalone="no"?>
<svg
   viewBox="0 0 199.63866 192.75816"
   version="1.1"
   id="svg1"
   xml:space="preserve"
   sodipodi:docname="next.svg"
   width="199.63866"
   height="192.75816"
   inkscape:version="1.3 (0e150ed6c4, 2023-07-21)"
   xmlns:inkscape="http://www.inkscape.org/namespaces/inkscape"
   xmlns:sodipodi="http://sodipodi.sourceforge.net/DTD/sodipodi-0.dtd"
   xmlns="http://www.w3.org/2000/svg"
   xmlns:svg="http://www.w3.org/2000/svg"><sodipodi:namedview
     id="namedview1"
     pagecolor="#505050"
     bordercolor="#ffffff"
     borderopacity="1"
     inkscape:showpageshadow="0"
     inkscape:pageopacity="0"
     inkscape:pagecheckerboard="1"
     inkscape:deskcolor="#505050"
     inkscape:zoom="2.8284271"
     inkscape:cx="99.702056"
     inkscape:cy="62.402173"
     inkscape:window-width="1920"
     inkscape:window-height="1129"
     inkscape:window-x="-8"
     inkscape:window-y="-8"
     inkscape:window-maximized="1"
     inkscape:current-layer="svg1" /><defs
     id="defs1"><clipPath
       clipPathUnits="userSpaceOnUse"
       id="clipPath4"><path
         d="M 269.92604,237.09363 125.19593,151.53018 c -11.75932,-6.9487 -29.76835,-0.20559 -29.76835,16.98111 v 171.08579 c 0,15.41869 16.73442,24.71102 29.76835,16.98112 l 144.73011,-85.52233 c 12.91058,-7.60656 12.9517,-26.35568 0,-33.96224 z"
         id="path4"
         style="display:none;fill:#ffffff;stroke-width:0.411165" /><path
         id="lpe_path-effect4"
         style="fill:#ffffff;stroke-width:0.411165"
         class="powerclip"
         d="M -5,-4.9679449 H 452.98751 V 517.05284 H -5 Z M 269.92604,237.09363 125.19593,151.53018 c -11.75932,-6.9487 -29.76835,-0.20559 -29.76835,16.98111 v 171.08579 c 0,15.41869 16.73442,24.71102 29.76835,16.98112 l 144.73011,-85.52233 c 12.91058,-7.60656 12.9517,-26.35568 0,-33.96224 z" /></clipPath></defs><path
     d="M 424.4,214.7 72.4,6.6 C 43.8,-10.3 0,6.1 0,47.9 V 464 c 0,37.5 40.7,60.1 72.4,41.3 l 352,-208 c 31.4,-18.5 31.5,-64.1 0,-82.6 z"
     id="path1-7"
     clip-path="url(#clipPath4)"
     transform="matrix(0.37529053,0,0,0.37529053,0,-0.01202998)"
     style="fill:#0d0d0d;fill-opacity:1" /><path
     d="M 199.63866,16.069473 V 176.69555 c -0.0101,8.86693 -7.19568,16.05247 -16.06261,16.06261 H 168.203 c -8.86693,-0.0101 -16.05247,-7.19568 -16.06261,-16.06261 V 16.069473 C 152.15053,7.2025443 159.33607,0.01700535 168.203,0.00686482 h 15.37305 c 8.86693,0.01013952 16.05247,7.19567948 16.06261,16.06260818 z"
     id="path1-0"
     style="fill:#0d0d0d;fill-opacity:1;stroke-width:1.00391"
     sodipodi:nodetypes="ccccccccc" /></svg>
