<?xml version="1.0" encoding="UTF-8" standalone="no"?>
<svg
   viewBox="0 0 175.52188 192"
   version="1.1"
   id="svg1"
   sodipodi:docname="pause.svg"
   width="175.52188"
   height="192"
   inkscape:version="1.3 (0e150ed6c4, 2023-07-21)"
   xmlns:inkscape="http://www.inkscape.org/namespaces/inkscape"
   xmlns:sodipodi="http://sodipodi.sourceforge.net/DTD/sodipodi-0.dtd"
   xmlns="http://www.w3.org/2000/svg"
   xmlns:svg="http://www.w3.org/2000/svg">
  <defs
     id="defs1" />
  <sodipodi:namedview
     id="namedview1"
     pagecolor="#505050"
     bordercolor="#ffffff"
     borderopacity="1"
     inkscape:showpageshadow="0"
     inkscape:pageopacity="0"
     inkscape:pagecheckerboard="1"
     inkscape:deskcolor="#505050"
     inkscape:zoom="3.4804688"
     inkscape:cx="87.344557"
     inkscape:cy="96.107744"
     inkscape:window-width="1920"
     inkscape:window-height="1129"
     inkscape:window-x="-8"
     inkscape:window-y="-8"
     inkscape:window-maximized="1"
     inkscape:current-layer="svg1" />
  <path
     d="m 175.52189,16 v 160 c -0.0101,8.83237 -7.16763,15.9899 -16,16 h -15.31313 c -8.83237,-0.0101 -15.9899,-7.16763 -16,-16 V 16 c 0.0101,-8.8323685 7.16763,-15.98989877 16,-16 h 15.31313 c 8.83237,0.01010123 15.9899,7.1676315 16,16 z M 47.31313,16 v 160 c -0.0101,8.83237 -7.16763,15.9899 -16,16 H 16 C 7.16763,191.9899 0.0101,184.83237 0,176 V 16 C 0.0101,7.1676315 7.16763,0.0101015 16,5.05e-7 H 31.31313 C 40.1455,0.0101005 47.30303,7.1676315 47.31313,16 Z"
     id="path1"
     style="fill:#0d0d0d;fill-opacity:1"
     sodipodi:nodetypes="cccccccccccccccccc" />
</svg>
